<?xml version="1.0" ?><svg height="32" id="svg4063" version="1.1" viewBox="0 0 32 32.000001" width="32" xmlns="http://www.w3.org/2000/svg" xmlns:cc="http://creativecommons.org/ns#" xmlns:dc="http://purl.org/dc/elements/1.1/" xmlns:inkscape="http://www.inkscape.org/namespaces/inkscape" xmlns:rdf="http://www.w3.org/1999/02/22-rdf-syntax-ns#" xmlns:sodipodi="http://sodipodi.sourceforge.net/DTD/sodipodi-0.dtd" xmlns:svg="http://www.w3.org/2000/svg"><defs id="defs4065"/><g id="layer1" transform="translate(0,-1020.3621)"><g id="g5641"><path d="m 12.5,1029.8621 13.5,0 c 0.83101,0 1.50001,0.669 1.50001,1.5 l 0,14 c 0,0.8309 -0.669,1.5 -1.50001,1.5 l -9.5,0 z" id="path5173" style="opacity:1;fill:#e6e7e8;fill-opacity:1;stroke:none;stroke-width:1;stroke-linecap:round;stroke-linejoin:round;stroke-miterlimit:4.0999999;stroke-dasharray:none"/><path d="m 19.4486,1043.9424 -2.9486,2.9197 -0.70558,-2.9988 z" id="path5175" style="opacity:1;fill:#0084ff;fill-opacity:1;stroke:none;stroke-width:1;stroke-linecap:round;stroke-linejoin:round;stroke-miterlimit:4.0999999;stroke-dasharray:none"/><path d="m 12.5,1029.3613 a 0.50005,0.50005 0 0 0 -0.486328,0.6153 l 4,17 A 0.50005,0.50005 0 0 0 16.5,1047.3613 l 9.5,0 c 1.099398,0 2,-0.9007 2,-2 l 0,-14 c 0,-1.0993 -0.900642,-2 -2,-2 l -13.5,0 z m 0.630859,1 12.869141,0 c 0.562662,0 1,0.4374 1,1 l 0,14 c 0,0.5625 -0.437378,1 -1,1 l -9.103516,0 -3.765625,-16 z" id="path3791" style="color:#000000;font-style:normal;font-variant:normal;font-weight:normal;font-stretch:normal;font-size:medium;line-height:normal;font-family:sans-serif;text-indent:0;text-align:start;text-decoration:none;text-decoration-line:none;text-decoration-style:solid;text-decoration-color:#000000;letter-spacing:normal;word-spacing:normal;text-transform:none;direction:ltr;block-progression:tb;writing-mode:lr-tb;baseline-shift:baseline;text-anchor:start;white-space:normal;clip-rule:nonzero;display:inline;overflow:visible;visibility:visible;opacity:1;isolation:auto;mix-blend-mode:normal;color-interpolation:sRGB;color-interpolation-filters:linearRGB;solid-color:#000000;solid-opacity:1;fill:#000000;fill-opacity:1;fill-rule:nonzero;stroke:none;stroke-width:1;stroke-linecap:round;stroke-linejoin:round;stroke-miterlimit:4.0999999;stroke-dasharray:none;stroke-dashoffset:0;stroke-opacity:1;color-rendering:auto;image-rendering:auto;shape-rendering:auto;text-rendering:auto;enable-background:accumulate"/><path d="m 19.484375,1043.3633 a 0.50005,0.50005 0 0 0 -0.34375,0.1504 l -2.988281,2.9902 a 0.50005,0.50005 0 1 0 0.707031,0.707 l 2.988281,-2.9902 a 0.50005,0.50005 0 0 0 -0.363281,-0.8574 z" id="path3795" style="color:#000000;font-style:normal;font-variant:normal;font-weight:normal;font-stretch:normal;font-size:medium;line-height:normal;font-family:sans-serif;text-indent:0;text-align:start;text-decoration:none;text-decoration-line:none;text-decoration-style:solid;text-decoration-color:#000000;letter-spacing:normal;word-spacing:normal;text-transform:none;direction:ltr;block-progression:tb;writing-mode:lr-tb;baseline-shift:baseline;text-anchor:start;white-space:normal;clip-rule:nonzero;display:inline;overflow:visible;visibility:visible;opacity:1;isolation:auto;mix-blend-mode:normal;color-interpolation:sRGB;color-interpolation-filters:linearRGB;solid-color:#000000;solid-opacity:1;fill:#000000;fill-opacity:1;fill-rule:evenodd;stroke:none;stroke-width:1px;stroke-linecap:round;stroke-linejoin:round;stroke-miterlimit:4;stroke-dasharray:none;stroke-dashoffset:0;stroke-opacity:1;color-rendering:auto;image-rendering:auto;shape-rendering:auto;text-rendering:auto;enable-background:accumulate"/><path d="m 17.492188,1033.3613 a 0.50005,0.50005 0 1 0 0,1 l 7,0 a 0.50005,0.50005 0 1 0 0,-1 l -7,0 z" id="path3799" style="color:#000000;font-style:normal;font-variant:normal;font-weight:normal;font-stretch:normal;font-size:medium;line-height:normal;font-family:sans-serif;text-indent:0;text-align:start;text-decoration:none;text-decoration-line:none;text-decoration-style:solid;text-decoration-color:#000000;letter-spacing:normal;word-spacing:normal;text-transform:none;direction:ltr;block-progression:tb;writing-mode:lr-tb;baseline-shift:baseline;text-anchor:start;white-space:normal;clip-rule:nonzero;display:inline;overflow:visible;visibility:visible;opacity:1;isolation:auto;mix-blend-mode:normal;color-interpolation:sRGB;color-interpolation-filters:linearRGB;solid-color:#000000;solid-opacity:1;fill:#000000;fill-opacity:1;fill-rule:evenodd;stroke:none;stroke-width:1px;stroke-linecap:round;stroke-linejoin:round;stroke-miterlimit:4;stroke-dasharray:none;stroke-dashoffset:0;stroke-opacity:1;color-rendering:auto;image-rendering:auto;shape-rendering:auto;text-rendering:auto;enable-background:accumulate"/><path d="m 19.527344,1033.3926 a 0.50005,0.50005 0 0 0 -0.509766,0.539 c 0.197083,3.108 1.988977,5.8953 4.734375,7.3653 a 0.50068442,0.50068442 0 1 0 0.472656,-0.8828 c -2.441502,-1.3073 -4.033717,-3.781 -4.208984,-6.545 a 0.50005,0.50005 0 0 0 -0.488281,-0.4765 z" id="path3801" style="color:#000000;font-style:normal;font-variant:normal;font-weight:normal;font-stretch:normal;font-size:medium;line-height:normal;font-family:sans-serif;text-indent:0;text-align:start;text-decoration:none;text-decoration-line:none;text-decoration-style:solid;text-decoration-color:#000000;letter-spacing:normal;word-spacing:normal;text-transform:none;direction:ltr;block-progression:tb;writing-mode:lr-tb;baseline-shift:baseline;text-anchor:start;white-space:normal;clip-rule:nonzero;display:inline;overflow:visible;visibility:visible;opacity:1;isolation:auto;mix-blend-mode:normal;color-interpolation:sRGB;color-interpolation-filters:linearRGB;solid-color:#000000;solid-opacity:1;fill:#000000;fill-opacity:1;fill-rule:nonzero;stroke:none;stroke-width:1;stroke-linecap:round;stroke-linejoin:round;stroke-miterlimit:4;stroke-dasharray:none;stroke-dashoffset:0;stroke-opacity:1;color-rendering:auto;image-rendering:auto;shape-rendering:auto;text-rendering:auto;enable-background:accumulate"/><path d="m 22.457031,1033.3887 a 0.50005,0.50005 0 0 0 -0.472656,0.4746 c -0.155975,2.4818 -1.456068,4.749 -3.519531,6.1367 a 0.50005,0.50005 0 1 0 0.55664,0.8301 c 2.320669,-1.5607 3.785521,-4.1132 3.960938,-6.9043 a 0.50005,0.50005 0 0 0 -0.525391,-0.5371 z" id="path3803" style="color:#000000;font-style:normal;font-variant:normal;font-weight:normal;font-stretch:normal;font-size:medium;line-height:normal;font-family:sans-serif;text-indent:0;text-align:start;text-decoration:none;text-decoration-line:none;text-decoration-style:solid;text-decoration-color:#000000;letter-spacing:normal;word-spacing:normal;text-transform:none;direction:ltr;block-progression:tb;writing-mode:lr-tb;baseline-shift:baseline;text-anchor:start;white-space:normal;clip-rule:nonzero;display:inline;overflow:visible;visibility:visible;opacity:1;isolation:auto;mix-blend-mode:normal;color-interpolation:sRGB;color-interpolation-filters:linearRGB;solid-color:#000000;solid-opacity:1;fill:#000000;fill-opacity:1;fill-rule:nonzero;stroke:none;stroke-width:1;stroke-linecap:round;stroke-linejoin:round;stroke-miterlimit:4;stroke-dasharray:none;stroke-dashoffset:0;stroke-opacity:1;color-rendering:auto;image-rendering:auto;shape-rendering:auto;text-rendering:auto;enable-background:accumulate"/><path d="M 20.992188,1031.3613 A 0.50005,0.50005 0 0 0 20.5,1031.8691 l 0,2 a 0.50005,0.50005 0 1 0 1,0 l 0,-2 a 0.50005,0.50005 0 0 0 -0.507812,-0.5078 z" id="path3805" style="color:#000000;font-style:normal;font-variant:normal;font-weight:normal;font-stretch:normal;font-size:medium;line-height:normal;font-family:sans-serif;text-indent:0;text-align:start;text-decoration:none;text-decoration-line:none;text-decoration-style:solid;text-decoration-color:#000000;letter-spacing:normal;word-spacing:normal;text-transform:none;direction:ltr;block-progression:tb;writing-mode:lr-tb;baseline-shift:baseline;text-anchor:start;white-space:normal;clip-rule:nonzero;display:inline;overflow:visible;visibility:visible;opacity:1;isolation:auto;mix-blend-mode:normal;color-interpolation:sRGB;color-interpolation-filters:linearRGB;solid-color:#000000;solid-opacity:1;fill:#000000;fill-opacity:1;fill-rule:evenodd;stroke:none;stroke-width:1px;stroke-linecap:round;stroke-linejoin:round;stroke-miterlimit:4;stroke-dasharray:none;stroke-dashoffset:0;stroke-opacity:1;color-rendering:auto;image-rendering:auto;shape-rendering:auto;text-rendering:auto;enable-background:accumulate"/><path d="m 19.5,1043.8621 -13.5,0 c -0.83101,0 -1.50001,-0.6691 -1.50001,-1.5 l 0,-14 c 0,-0.831 0.669,-1.5 1.50001,-1.5 l 9.5,0 z" id="path5171" style="opacity:1;fill:#10bafc;fill-opacity:1;stroke:none;stroke-width:1;stroke-linecap:round;stroke-linejoin:round;stroke-miterlimit:4.0999999;stroke-dasharray:none"/><path d="m 6,1026.3613 c -1.0993582,0 -2,0.9007 -2,2 l 0,14 c 0,1.0993 0.9006017,2 2,2 l 13.5,0 a 0.50005,0.50005 0 0 0 0.486328,-0.6133 l -4,-17 A 0.50005,0.50005 0 0 0 15.5,1026.3613 l -9.5,0 z m 0,1 9.103516,0 3.765625,16 -12.869141,0 c -0.5626217,0 -1,-0.4375 -1,-1 l 0,-14 c 0,-0.5626 0.4373382,-1 1,-1 z" id="path3793" style="color:#000000;font-style:normal;font-variant:normal;font-weight:normal;font-stretch:normal;font-size:medium;line-height:normal;font-family:sans-serif;text-indent:0;text-align:start;text-decoration:none;text-decoration-line:none;text-decoration-style:solid;text-decoration-color:#000000;letter-spacing:normal;word-spacing:normal;text-transform:none;direction:ltr;block-progression:tb;writing-mode:lr-tb;baseline-shift:baseline;text-anchor:start;white-space:normal;clip-rule:nonzero;display:inline;overflow:visible;visibility:visible;opacity:1;isolation:auto;mix-blend-mode:normal;color-interpolation:sRGB;color-interpolation-filters:linearRGB;solid-color:#000000;solid-opacity:1;fill:#000000;fill-opacity:1;fill-rule:nonzero;stroke:none;stroke-width:1;stroke-linecap:round;stroke-linejoin:round;stroke-miterlimit:4.0999999;stroke-dasharray:none;stroke-dashoffset:0;stroke-opacity:1;color-rendering:auto;image-rendering:auto;shape-rendering:auto;text-rendering:auto;enable-background:accumulate"/><path d="m 9.6074219,1029.3887 c -0.6389166,0.084 -1.2511759,0.3722 -1.7304688,0.8515 -0.9586181,0.9586 -1.1544124,2.4471 -0.4765625,3.6211 0.6778364,1.174 2.0656192,1.7492 3.3750004,1.3985 1.309431,-0.3509 2.224597,-1.5428 2.224609,-2.8985 a 0.50005,0.50005 0 0 0 -0.5,-0.5 l -2.5,0 a 0.50005,0.50005 0 1 0 0,1 l 1.830078,0 c -0.18643,0.6684 -0.615547,1.2469 -1.3125,1.4336 -0.876979,0.2349 -1.7960763,-0.1474 -2.2499999,-0.9336 -0.4539301,-0.7862 -0.3255156,-1.7722 0.3164063,-2.414 0.6419743,-0.642 1.6297916,-0.7723 2.4160156,-0.3184 a 0.50005,0.50005 0 1 0 0.5,-0.8652 c -0.587008,-0.339 -1.253662,-0.4591 -1.8925781,-0.375 z" id="path3797" style="color:#000000;font-style:normal;font-variant:normal;font-weight:normal;font-stretch:normal;font-size:medium;line-height:normal;font-family:sans-serif;text-indent:0;text-align:start;text-decoration:none;text-decoration-line:none;text-decoration-style:solid;text-decoration-color:#000000;letter-spacing:normal;word-spacing:normal;text-transform:none;direction:ltr;block-progression:tb;writing-mode:lr-tb;baseline-shift:baseline;text-anchor:start;white-space:normal;clip-rule:nonzero;display:inline;overflow:visible;visibility:visible;opacity:1;isolation:auto;mix-blend-mode:normal;color-interpolation:sRGB;color-interpolation-filters:linearRGB;solid-color:#000000;solid-opacity:1;fill:#000000;fill-opacity:1;fill-rule:nonzero;stroke:none;stroke-width:1;stroke-linecap:round;stroke-linejoin:round;stroke-miterlimit:4.0999999;stroke-dasharray:none;stroke-dashoffset:0;stroke-opacity:1;color-rendering:auto;image-rendering:auto;shape-rendering:auto;text-rendering:auto;enable-background:accumulate"/></g></g></svg>